<?xml version="1.0" encoding="UTF-8" standalone="no"?>
<!DOCTYPE svg PUBLIC "-//W3C//DTD SVG 1.0//EN" "http://www.w3.org/TR/2001/PR-SVG-20010719/DTD/svg10.dtd">
<svg width="18cm" height="9cm" viewBox="10 11 341 175" xmlns="http://www.w3.org/2000/svg" xmlns:xlink="http://www.w3.org/1999/xlink">
  <g>
    <rect style="fill: #ffffff" x="270" y="70" width="80" height="20"/>
    <rect style="fill: none; fill-opacity:0; stroke-width: 1; stroke: #000000" x="270" y="70" width="80" height="20"/>
    <text font-size="6.77333" style="fill: #000000;text-anchor:middle;font-family:sans-serif;font-style:normal;font-weight:normal" x="310" y="82.0667">
      <tspan x="310" y="82.0667">out.tuio://[::1]:3335</tspan>
    </text>
  </g>
  <g>
    <rect style="fill: #ffffff" x="20" y="70" width="60" height="20"/>
    <rect style="fill: none; fill-opacity:0; stroke-width: 1; stroke: #000000" x="20" y="70" width="60" height="20"/>
    <text font-size="6.77333" style="fill: #000000;text-anchor:middle;font-family:sans-serif;font-style:normal;font-weight:normal" x="50" y="82.0667">
      <tspan x="50" y="82.0667">in.tuio://:3333</tspan>
    </text>
  </g>
  <text font-size="12.8" style="fill: #000000;text-anchor:start;font-family:sans-serif;font-style:normal;font-weight:normal" x="48.7" y="100.233">
    <tspan x="48.7" y="100.233"></tspan>
  </text>
  <g>
    <rect style="fill: #ffffff" x="100" y="70" width="40" height="20"/>
    <rect style="fill: none; fill-opacity:0; stroke-width: 1; stroke: #000000" x="100" y="70" width="40" height="20"/>
    <text font-size="6.77333" style="fill: #000000;text-anchor:middle;font-family:sans-serif;font-style:normal;font-weight:normal" x="120" y="82.0667">
      <tspan x="120" y="82.0667">filtering:</tspan>
    </text>
  </g>
  <g>
    <rect style="fill: #ffffff" x="270" y="142" width="40" height="20.4667"/>
    <rect style="fill: none; fill-opacity:0; stroke-width: 1; stroke: #000000" x="270" y="142" width="40" height="20.4667"/>
    <text font-size="6.77333" style="fill: #000000;text-anchor:middle;font-family:sans-serif;font-style:normal;font-weight:normal" x="290" y="154.3">
      <tspan x="290" y="154.3">rec:</tspan>
    </text>
  </g>
  <g>
    <rect style="fill: #ffffff" x="20" y="142" width="40" height="20"/>
    <rect style="fill: none; fill-opacity:0; stroke-width: 1; stroke: #000000" x="20" y="142" width="40" height="20"/>
    <text font-size="6.77333" style="fill: #000000;text-anchor:middle;font-family:sans-serif;font-style:normal;font-weight:normal" x="40" y="154.067">
      <tspan x="40" y="154.067">player:</tspan>
    </text>
  </g>
  <g>
    <rect style="fill: #ffffff" x="159.925" y="70" width="70.05" height="20"/>
    <rect style="fill: none; fill-opacity:0; stroke-width: 1; stroke: #000000" x="159.925" y="70" width="70.05" height="20"/>
    <text font-size="6.77333" style="fill: #000000;text-anchor:middle;font-family:sans-serif;font-style:normal;font-weight:normal" x="194.95" y="82.0667">
      <tspan x="194.95" y="82.0667">calib:?screen=left</tspan>
    </text>
  </g>
  <g>
    <rect style="fill: #ffffff" x="250" y="106" width="2" height="20"/>
    <rect style="fill: none; fill-opacity:0; stroke-width: 2; stroke: #ffffff" x="250" y="106" width="2" height="20"/>
  </g>
  <g>
    <line style="fill: none; fill-opacity:0; stroke-width: 1; stroke: #000000" x1="80" y1="80" x2="95.3937" y2="80"/>
    <polygon style="fill: #000000" points="98.3937,80 94.3937,82 95.3937,80 94.3937,78 "/>
    <polygon style="fill: none; fill-opacity:0; stroke-width: 1; stroke: #000000" points="98.3937,80 94.3937,82 95.3937,80 94.3937,78 "/>
  </g>
  <g>
    <line style="fill: none; fill-opacity:0; stroke-width: 1; stroke: #000000" x1="140.503" y1="80" x2="155.315" y2="80"/>
    <polygon style="fill: #000000" points="158.315,80 154.315,82 155.315,80 154.315,78 "/>
    <polygon style="fill: none; fill-opacity:0; stroke-width: 1; stroke: #000000" points="158.315,80 154.315,82 155.315,80 154.315,78 "/>
  </g>
  <polyline style="fill: none; fill-opacity:0; stroke-width: 1; stroke: #000000" points="229.976,80 240,80 240,116 250,116 "/>
  <g>
    <polyline style="fill: none; fill-opacity:0; stroke-width: 1; stroke: #000000" points="252.986,116 260,116 260,80 265.391,80 "/>
    <polygon style="fill: #000000" points="268.391,80 264.391,82 265.391,80 264.391,78 "/>
    <polygon style="fill: none; fill-opacity:0; stroke-width: 1; stroke: #000000" points="268.391,80 264.391,82 265.391,80 264.391,78 "/>
  </g>
  <g>
    <polyline style="fill: none; fill-opacity:0; stroke-width: 1; stroke: #000000" points="250,116 260,116 260,152.233 265.433,152.233 "/>
    <polygon style="fill: #000000" points="268.433,152.233 264.433,154.233 265.433,152.233 264.433,150.233 "/>
    <polygon style="fill: none; fill-opacity:0; stroke-width: 1; stroke: #000000" points="268.433,152.233 264.433,154.233 265.433,152.233 264.433,150.233 "/>
  </g>
  <polyline style="fill: none; fill-opacity:0; stroke-width: 1; stroke: #000000" points="48.4102,152 228,152 228,116 238,116 "/>
  <text font-size="6.77333" style="fill: #000000;text-anchor:start;font-family:monospace;font-style:normal;font-weight:normal" x="20" y="30">
    <tspan x="20" y="30">$ boing "(in.tuio://:3333 + filtering: + calib:?screen=left | player:)</tspan>
    <tspan x="20" y="38.4667">         + (out.tuio://[::1]:3335 | rec:)"</tspan>
  </text>
  <text font-size="9.03111" style="fill: #000000;text-anchor:start;font-family:sans-serif;font-style:normal;font-weight:normal" x="10" y="20">
    <tspan x="10" y="20">Command:</tspan>
  </text>
  <text font-size="9.03111" style="fill: #000000;text-anchor:start;font-family:sans-serif;font-style:normal;font-weight:normal" x="10" y="60">
    <tspan x="10" y="60">Pipeline obtained:</tspan>
  </text>
  <g>
    <polygon style="fill: #ffffb3" points="24,96 70,96 76,102 76,120 24,120 "/>
    <polygon style="fill: none; fill-opacity:0; stroke-width: 0.6; stroke: #000000" points="24,96 70,96 76,102 76,120 24,120 "/>
  </g>
  <polyline style="fill: none; fill-opacity:0; stroke-width: 0.4; stroke: #000000" points="70,96 70,102 76,102 "/>
  <text font-size="4.51556" style="fill: #000000;text-anchor:start;font-family:sans-serif;font-style:normal;font-weight:normal" x="26" y="104">
    <tspan x="26" y="104">Read TUIO events </tspan>
    <tspan x="26" y="109.644">from the UDP socket</tspan>
    <tspan x="26" y="115.289">at port 3333</tspan>
  </text>
  <g>
    <polygon style="fill: #ffffb3" points="104,96 150,96 156,102 156,114 104,114 "/>
    <polygon style="fill: none; fill-opacity:0; stroke-width: 0.6; stroke: #000000" points="104,96 150,96 156,102 156,114 104,114 "/>
  </g>
  <polyline style="fill: none; fill-opacity:0; stroke-width: 0.4; stroke: #000000" points="150,96 150,102 156,102 "/>
  <text font-size="4.51556" style="fill: #000000;text-anchor:start;font-family:sans-serif;font-style:normal;font-weight:normal" x="106" y="104">
    <tspan x="106" y="104">Smooth the track</tspan>
    <tspan x="106" y="109.644">of the contacts</tspan>
  </text>
  <g>
    <polygon style="fill: #ffffb3" points="164,96 218,96 224,102 224,124 164,124 "/>
    <polygon style="fill: none; fill-opacity:0; stroke-width: 0.6; stroke: #000000" points="164,96 218,96 224,102 224,124 164,124 "/>
  </g>
  <polyline style="fill: none; fill-opacity:0; stroke-width: 0.4; stroke: #000000" points="218,96 218,102 224,102 "/>
  <text font-size="4.51556" style="fill: #000000;text-anchor:start;font-family:sans-serif;font-style:normal;font-weight:normal" x="166" y="104">
    <tspan x="166" y="104">Calibrate the position</tspan>
    <tspan x="166" y="109.644">of the contacts by</tspan>
    <tspan x="166" y="115.289">rotating 90 degrees</tspan>
    <tspan x="166" y="120.933">counterclockwise</tspan>
  </text>
  <g>
    <polygon style="fill: #ffffb3" points="24,168 64,168 70,174 70,186 24,186 "/>
    <polygon style="fill: none; fill-opacity:0; stroke-width: 0.6; stroke: #000000" points="24,168 64,168 70,174 70,186 24,186 "/>
  </g>
  <polyline style="fill: none; fill-opacity:0; stroke-width: 0.4; stroke: #000000" points="64,168 64,174 70,174 "/>
  <text font-size="4.51556" style="fill: #000000;text-anchor:start;font-family:sans-serif;font-style:normal;font-weight:normal" x="26" y="176">
    <tspan x="26" y="176">Replay events</tspan>
    <tspan x="26" y="181.644">logged into files</tspan>
  </text>
  <line style="fill: none; fill-opacity:0; stroke-width: 0.4; stroke: #000000" x1="44" y1="168" x2="40" y2="162"/>
  <g>
    <polygon style="fill: #ffffb3" points="274,168 312,168 318,174 318,186 274,186 "/>
    <polygon style="fill: none; fill-opacity:0; stroke-width: 0.6; stroke: #000000" points="274,168 312,168 318,174 318,186 274,186 "/>
  </g>
  <polyline style="fill: none; fill-opacity:0; stroke-width: 0.4; stroke: #000000" points="312,168 312,174 318,174 "/>
  <text font-size="4.51556" style="fill: #000000;text-anchor:start;font-family:sans-serif;font-style:normal;font-weight:normal" x="276" y="176">
    <tspan x="276" y="176">Record events</tspan>
    <tspan x="276" y="181.644">into log files</tspan>
  </text>
  <g>
    <polygon style="fill: #ffffb3" points="274,96 334,96 340,102 340,126 274,126 "/>
    <polygon style="fill: none; fill-opacity:0; stroke-width: 0.6; stroke: #000000" points="274,96 334,96 340,102 340,126 274,126 "/>
  </g>
  <polyline style="fill: none; fill-opacity:0; stroke-width: 0.4; stroke: #000000" points="334,96 334,102 340,102 "/>
  <text font-size="4.51556" style="fill: #000000;text-anchor:start;font-family:sans-serif;font-style:normal;font-weight:normal" x="276" y="104">
    <tspan x="276" y="104">Forward the processed</tspan>
    <tspan x="276" y="109.644">contact events as a</tspan>
    <tspan x="276" y="115.289">TUIO stream to a local</tspan>
    <tspan x="276" y="120.933">UDP socket at port 3335</tspan>
  </text>
  <line style="fill: none; fill-opacity:0; stroke-width: 0.4; stroke: #000000" x1="124" y1="96" x2="120" y2="90"/>
  <line style="fill: none; fill-opacity:0; stroke-width: 0.4; stroke: #000000" x1="188" y1="96" x2="184" y2="90"/>
  <line style="fill: none; fill-opacity:0; stroke-width: 0.4; stroke: #000000" x1="304" y1="96" x2="300" y2="90"/>
  <line style="fill: none; fill-opacity:0; stroke-width: 0.4; stroke: #000000" x1="293" y1="168" x2="290" y2="162.467"/>
  <line style="fill: none; fill-opacity:0; stroke-width: 0.4; stroke: #000000" x1="47" y1="96" x2="44" y2="90"/>
</svg>
