<?xml version="1.0" encoding="UTF-8" standalone="no"?>
<!DOCTYPE svg PUBLIC "-//W3C//DTD SVG 1.0//EN" "http://www.w3.org/TR/2001/PR-SVG-20010719/DTD/svg10.dtd">
<svg width="14cm" height="2cm" viewBox="9 9 272 22" xmlns="http://www.w3.org/2000/svg" xmlns:xlink="http://www.w3.org/1999/xlink">
  <g>
    <rect style="fill: #ffffff" x="240" y="10" width="40" height="20"/>
    <rect style="fill: none; fill-opacity:0; stroke-width: 1; stroke: #000000" x="240" y="10" width="40" height="20"/>
    <text font-size="6.77333" style="fill: #000000;text-anchor:middle;font-family:sans-serif;font-style:normal;font-weight:normal" x="260" y="22.0667">
      <tspan x="260" y="22.0667">viz:</tspan>
    </text>
  </g>
  <g>
    <rect style="fill: #ffffff" x="10" y="10" width="60" height="20"/>
    <rect style="fill: none; fill-opacity:0; stroke-width: 1; stroke: #000000" x="10" y="10" width="60" height="20"/>
    <text font-size="6.77333" style="fill: #000000;text-anchor:middle;font-family:sans-serif;font-style:normal;font-weight:normal" x="40" y="22.0667">
      <tspan x="40" y="22.0667">in.tuio://:3333</tspan>
    </text>
  </g>
  <g>
    <rect style="fill: #ffffff" x="90" y="10" width="40" height="20"/>
    <rect style="fill: none; fill-opacity:0; stroke-width: 1; stroke: #000000" x="90" y="10" width="40" height="20"/>
    <text font-size="6.77333" style="fill: #000000;text-anchor:middle;font-family:sans-serif;font-style:normal;font-weight:normal" x="110" y="22.0667">
      <tspan x="110" y="22.0667">filtering:</tspan>
    </text>
  </g>
  <g>
    <rect style="fill: #ffffff" x="149.925" y="10" width="70.05" height="20"/>
    <rect style="fill: none; fill-opacity:0; stroke-width: 1; stroke: #000000" x="149.925" y="10" width="70.05" height="20"/>
    <text font-size="6.77333" style="fill: #000000;text-anchor:middle;font-family:sans-serif;font-style:normal;font-weight:normal" x="184.95" y="22.0667">
      <tspan x="184.95" y="22.0667">calib:?screen=left</tspan>
    </text>
  </g>
  <g>
    <line style="fill: none; fill-opacity:0; stroke-width: 1; stroke: #000000" x1="70" y1="20" x2="85.3937" y2="20"/>
    <polygon style="fill: #000000" points="88.3937,20 84.3937,22 85.3937,20 84.3937,18 "/>
    <polygon style="fill: none; fill-opacity:0; stroke-width: 1; stroke: #000000" points="88.3937,20 84.3937,22 85.3937,20 84.3937,18 "/>
  </g>
  <g>
    <line style="fill: none; fill-opacity:0; stroke-width: 1; stroke: #000000" x1="130.503" y1="20" x2="145.315" y2="20"/>
    <polygon style="fill: #000000" points="148.315,20 144.315,22 145.315,20 144.315,18 "/>
    <polygon style="fill: none; fill-opacity:0; stroke-width: 1; stroke: #000000" points="148.315,20 144.315,22 145.315,20 144.315,18 "/>
  </g>
  <g>
    <line style="fill: none; fill-opacity:0; stroke-width: 1; stroke: #000000" x1="219.975" y1="20" x2="235.882" y2="20"/>
    <polygon style="fill: #000000" points="238.882,20 234.882,22 235.882,20 234.882,18 "/>
    <polygon style="fill: none; fill-opacity:0; stroke-width: 1; stroke: #000000" points="238.882,20 234.882,22 235.882,20 234.882,18 "/>
  </g>
</svg>
