<?xml version="1.0" encoding="UTF-8" standalone="no"?>
<!DOCTYPE svg PUBLIC "-//W3C//DTD SVG 1.0//EN" "http://www.w3.org/TR/2001/PR-SVG-20010719/DTD/svg10.dtd">
<svg width="21cm" height="4cm" viewBox="9 9 412 62" xmlns="http://www.w3.org/2000/svg" xmlns:xlink="http://www.w3.org/1999/xlink">
  <g>
    <rect style="fill: #ffffff" x="380" y="30" width="40" height="20"/>
    <rect style="fill: none; fill-opacity:0; stroke-width: 1; stroke: #000000" x="380" y="30" width="40" height="20"/>
    <text font-size="6.77333" style="fill: #000000;text-anchor:middle;font-family:sans-serif;font-style:normal;font-weight:normal" x="400" y="42.0667">
      <tspan x="400" y="42.0667">viz:</tspan>
    </text>
  </g>
  <g>
    <rect style="fill: #ffffff" x="10" y="30" width="60" height="20"/>
    <rect style="fill: none; fill-opacity:0; stroke-width: 1; stroke: #000000" x="10" y="30" width="60" height="20"/>
    <text font-size="6.77333" style="fill: #000000;text-anchor:middle;font-family:sans-serif;font-style:normal;font-weight:normal" x="40" y="42.0667">
      <tspan x="40" y="42.0667">in.tuio://:3333</tspan>
    </text>
  </g>
  <g>
    <rect style="fill: #ffffff" x="110" y="10" width="40" height="20"/>
    <rect style="fill: none; fill-opacity:0; stroke-width: 1; stroke: #000000" x="110" y="10" width="40" height="20"/>
    <text font-size="6.77333" style="fill: #000000;text-anchor:middle;font-family:sans-serif;font-style:normal;font-weight:normal" x="130" y="22.0667">
      <tspan x="130" y="22.0667">filtering:</tspan>
    </text>
  </g>
  <g>
    <rect style="fill: #ffffff" x="169.925" y="10" width="70.05" height="20"/>
    <rect style="fill: none; fill-opacity:0; stroke-width: 1; stroke: #000000" x="169.925" y="10" width="70.05" height="20"/>
    <text font-size="6.77333" style="fill: #000000;text-anchor:middle;font-family:sans-serif;font-style:normal;font-weight:normal" x="204.95" y="22.0667">
      <tspan x="204.95" y="22.0667">calib:?screen=left</tspan>
    </text>
  </g>
  <g>
    <line style="fill: none; fill-opacity:0; stroke-width: 1; stroke: #000000" x1="150.503" y1="20" x2="165.315" y2="20"/>
    <polygon style="fill: #000000" points="168.315,20 164.315,22 165.315,20 164.315,18 "/>
    <polygon style="fill: none; fill-opacity:0; stroke-width: 1; stroke: #000000" points="168.315,20 164.315,22 165.315,20 164.315,18 "/>
  </g>
  <g>
    <polyline style="fill: none; fill-opacity:0; stroke-width: 1; stroke: #000000" points="70.4932,40 90,40 90,20 105.394,20 "/>
    <polygon style="fill: #000000" points="108.394,20 104.394,22 105.394,20 104.394,18 "/>
    <polygon style="fill: none; fill-opacity:0; stroke-width: 1; stroke: #000000" points="108.394,20 104.394,22 105.394,20 104.394,18 "/>
  </g>
  <g>
    <polyline style="fill: none; fill-opacity:0; stroke-width: 1; stroke: #000000" points="70.4932,40 90,40 90,60 195.411,60 "/>
    <polygon style="fill: #000000" points="198.411,60 194.411,62 195.411,60 194.411,58 "/>
    <polygon style="fill: none; fill-opacity:0; stroke-width: 1; stroke: #000000" points="198.411,60 194.411,62 195.411,60 194.411,58 "/>
  </g>
  <g>
    <rect style="fill: #ffffff" x="200" y="50" width="40" height="20"/>
    <rect style="fill: none; fill-opacity:0; stroke-width: 1; stroke: #000000" x="200" y="50" width="40" height="20"/>
    <text font-size="6.77333" style="fill: #000000;text-anchor:middle;font-family:sans-serif;font-style:normal;font-weight:normal" x="220" y="62.0667">
      <tspan x="220" y="62.0667">nop:</tspan>
    </text>
  </g>
  <g>
    <polyline style="fill: none; fill-opacity:0; stroke-width: 1; stroke: #000000" points="340.05,20 360,20 360,40 375.882,40 "/>
    <polygon style="fill: #000000" points="378.882,40 374.882,42 375.882,40 374.882,38 "/>
    <polygon style="fill: none; fill-opacity:0; stroke-width: 1; stroke: #000000" points="378.882,40 374.882,42 375.882,40 374.882,38 "/>
  </g>
  <g>
    <polyline style="fill: none; fill-opacity:0; stroke-width: 1; stroke: #000000" points="240,60 360,60 360,40 375.394,40 "/>
    <polygon style="fill: #000000" points="378.394,40 374.394,42 375.394,40 374.394,38 "/>
    <polygon style="fill: none; fill-opacity:0; stroke-width: 1; stroke: #000000" points="378.394,40 374.394,42 375.394,40 374.394,38 "/>
  </g>
  <g>
    <rect style="fill: #ffffff" x="259.9" y="10" width="80.15" height="20"/>
    <rect style="fill: none; fill-opacity:0; stroke-width: 1; stroke: #000000" x="259.9" y="10" width="80.15" height="20"/>
    <text font-size="6.77333" style="fill: #000000;text-anchor:middle;font-family:sans-serif;font-style:normal;font-weight:normal" x="299.975" y="22.0667">
      <tspan x="299.975" y="22.0667">edit:?source=filtered</tspan>
    </text>
  </g>
  <g>
    <line style="fill: none; fill-opacity:0; stroke-width: 1; stroke: #000000" x1="240.445" y1="20" x2="255.293" y2="20"/>
    <polygon style="fill: #000000" points="258.293,20 254.293,22 255.293,20 254.293,18 "/>
    <polygon style="fill: none; fill-opacity:0; stroke-width: 1; stroke: #000000" points="258.293,20 254.293,22 255.293,20 254.293,18 "/>
  </g>
</svg>
