<?xml version="1.0" encoding="UTF-8" standalone="no"?>
<!DOCTYPE svg PUBLIC "-//W3C//DTD SVG 1.0//EN" "http://www.w3.org/TR/2001/PR-SVG-20010719/DTD/svg10.dtd">
<svg width="8cm" height="4cm" viewBox="9 9 142 62" xmlns="http://www.w3.org/2000/svg" xmlns:xlink="http://www.w3.org/1999/xlink">
  <g>
    <rect style="fill: #ffffff" x="10" y="30" width="60" height="20.4667"/>
    <rect style="fill: none; fill-opacity:0; stroke-width: 1; stroke: #000000" x="10" y="30" width="60" height="20.4667"/>
    <text font-size="6.77333" style="fill: #000000;text-anchor:middle;font-family:sans-serif;font-style:normal;font-weight:normal" x="40" y="42.3">
      <tspan x="40" y="42.3">in.tuio://:3333</tspan>
    </text>
  </g>
  <g>
    <rect style="fill: #ffffff" x="110" y="9.76666" width="40" height="20.4667"/>
    <rect style="fill: none; fill-opacity:0; stroke-width: 1; stroke: #000000" x="110" y="9.76666" width="40" height="20.4667"/>
    <text font-size="6.77333" style="fill: #000000;text-anchor:middle;font-family:sans-serif;font-style:normal;font-weight:normal" x="130" y="22.0667">
      <tspan x="130" y="22.0667">viz:</tspan>
    </text>
  </g>
  <g>
    <rect style="fill: #ffffff" x="110" y="50" width="40" height="20.4667"/>
    <rect style="fill: none; fill-opacity:0; stroke-width: 1; stroke: #000000" x="110" y="50" width="40" height="20.4667"/>
    <text font-size="6.77333" style="fill: #000000;text-anchor:middle;font-family:sans-serif;font-style:normal;font-weight:normal" x="130" y="62.3">
      <tspan x="130" y="62.3">dump:</tspan>
    </text>
  </g>
  <g>
    <polyline style="fill: none; fill-opacity:0; stroke-width: 1; stroke: #000000" points="70.5074,40.2333 90.0012,40.2333 90.0012,20 105.377,20 "/>
    <polygon style="fill: #000000" points="108.377,20 104.377,22 105.377,20 104.377,18 "/>
    <polygon style="fill: none; fill-opacity:0; stroke-width: 1; stroke: #000000" points="108.377,20 104.377,22 105.377,20 104.377,18 "/>
  </g>
  <g>
    <polyline style="fill: none; fill-opacity:0; stroke-width: 1; stroke: #000000" points="70.5074,40.2333 90.0012,40.2333 90.0012,60.2333 105.377,60.2333 "/>
    <polygon style="fill: #000000" points="108.377,60.2333 104.377,62.2333 105.377,60.2333 104.377,58.2333 "/>
    <polygon style="fill: none; fill-opacity:0; stroke-width: 1; stroke: #000000" points="108.377,60.2333 104.377,62.2333 105.377,60.2333 104.377,58.2333 "/>
  </g>
</svg>
