<?xml version="1.0" encoding="UTF-8" standalone="no"?>
<!DOCTYPE svg PUBLIC "-//W3C//DTD SVG 1.0//EN" "http://www.w3.org/TR/2001/PR-SVG-20010719/DTD/svg10.dtd">
<svg width="42cm" height="12cm" viewBox="18 18 823 231" xmlns="http://www.w3.org/2000/svg" xmlns:xlink="http://www.w3.org/1999/xlink">
  <g>
    <rect style="fill: #ffffff" x="20" y="180" width="220" height="68"/>
    <rect style="fill: none; fill-opacity:0; stroke-width: 2; stroke: #ffffff" x="20" y="180" width="220" height="68"/>
  </g>
  <g>
    <rect style="fill: #ffffff" x="320" y="20" width="220" height="100"/>
    <rect style="fill: none; fill-opacity:0; stroke-width: 2; stroke: #ffffff" x="320" y="20" width="220" height="100"/>
  </g>
  <line style="fill: none; fill-opacity:0; stroke-width: 2; stroke: #000000" x1="130" y1="194" x2="130" y2="194"/>
  <g>
    <rect style="fill: #ffffff" x="20" y="208" width="220" height="40"/>
    <rect style="fill: none; fill-opacity:0; stroke-width: 2; stroke: #000000" x="20" y="208" width="220" height="40"/>
    <text font-size="11.2889" style="fill: #000000;text-anchor:middle;font-family:monospace;font-style:normal;font-weight:normal" x="130" y="224.389">
      <tspan x="130" y="224.389"></tspan>
      <tspan x="130" y="238.5">aggregateDemand = A,B</tspan>
    </text>
  </g>
  <g>
    <line style="fill: none; fill-opacity:0; stroke-width: 2; stroke: #000000" x1="240" y1="214" x2="315.272" y2="78.5109"/>
    <polygon style="fill: #000000" points="318.914,71.9547 318.428,83.1245 315.272,78.5109 309.687,78.268 "/>
    <polygon style="fill: none; fill-opacity:0; stroke-width: 2; stroke: #000000" points="318.914,71.9547 318.428,83.1245 315.272,78.5109 309.687,78.268 "/>
  </g>
  <g>
    <rect style="fill: #ffffff" x="320" y="48" width="220" height="72"/>
    <rect style="fill: none; fill-opacity:0; stroke-width: 2; stroke: #000000" x="320" y="48" width="220" height="72"/>
    <text font-size="11.2889" style="fill: #000000;text-anchor:middle;font-family:monospace;font-style:normal;font-weight:normal" x="430" y="66.2778">
      <tspan x="430" y="66.2778">request = A</tspan>
      <tspan x="430" y="80.3889"></tspan>
      <tspan x="430" y="94.5"></tspan>
      <tspan x="430" y="108.611"></tspan>
    </text>
  </g>
  <g>
    <rect style="fill: #ffffff" x="619.196" y="187" width="220.804" height="54"/>
    <rect style="fill: none; fill-opacity:0; stroke-width: 2; stroke: #ffffff" x="619.196" y="187" width="220.804" height="54"/>
  </g>
  <g>
    <line style="fill: none; fill-opacity:0; stroke-width: 2; stroke: #000000" x1="240" y1="214" x2="609.46" y2="214"/>
    <polygon style="fill: #000000" points="616.96,214 606.96,219 609.46,214 606.96,209 "/>
    <polygon style="fill: none; fill-opacity:0; stroke-width: 2; stroke: #000000" points="616.96,214 606.96,219 609.46,214 606.96,209 "/>
  </g>
  <g>
    <line style="fill: none; fill-opacity:0; stroke-width: 2; stroke: #000000" x1="540" y1="70" x2="614.504" y2="205.469"/>
    <polygon style="fill: #000000" points="618.118,212.041 608.918,205.688 614.504,205.469 617.681,200.869 "/>
    <polygon style="fill: none; fill-opacity:0; stroke-width: 2; stroke: #000000" points="618.118,212.041 608.918,205.688 614.504,205.469 617.681,200.869 "/>
  </g>
  <g>
    <g>
      <rect style="fill: #ffffff" x="320" y="20" width="220" height="28"/>
      <rect style="fill: none; fill-opacity:0; stroke-width: 2; stroke: #000000" x="320" y="20" width="220" height="28"/>
      <text font-size="13.5467" style="fill: #000000;text-anchor:middle;font-family:sans-serif;font-style:normal;font-weight:700" x="430" y="38.1333">
        <tspan x="430" y="38.1333">W</tspan>
      </text>
    </g>
    <g>
      <rect style="fill: none; fill-opacity:0; stroke-width: 2; stroke: #000000" x="320" y="48" width="220" height="72"/>
      <text font-size="11.2889" style="fill: #0000ff;text-anchor:middle;font-family:monospace;font-style:normal;font-weight:normal" x="430" y="66.2778">
        <tspan x="430" y="66.2778"></tspan>
        <tspan x="430" y="80.3889">offer = None</tspan>
        <tspan x="430" y="94.5">aggregateDemand = B</tspan>
        <tspan x="430" y="108.611">active = False</tspan>
      </text>
    </g>
  </g>
  <g>
    <polygon style="fill: #ffffff" points="419.947,195 453.883,195 440.053,233 406.117,233 "/>
    <polygon style="fill: none; fill-opacity:0; stroke-width: 2; stroke: #000000" points="419.947,195 453.883,195 440.053,233 406.117,233 "/>
    <text font-size="11.2889" style="fill: #0000ff;text-anchor:middle;font-family:monospace;font-style:normal;font-weight:normal" x="430" y="217.444">
      <tspan x="430" y="217.444">B</tspan>
    </text>
  </g>
  <g>
    <g>
      <rect style="fill: #ffffff" x="20" y="180" width="220" height="28"/>
      <rect style="fill: none; fill-opacity:0; stroke-width: 2; stroke: #000000" x="20" y="180" width="220" height="28"/>
      <text font-size="13.5467" style="fill: #000000;text-anchor:middle;font-family:sans-serif;font-style:normal;font-weight:700" x="130" y="198.133">
        <tspan x="130" y="198.133">P</tspan>
      </text>
    </g>
    <g>
      <rect style="fill: none; fill-opacity:0; stroke-width: 2; stroke: #000000" x="20" y="208" width="220" height="40"/>
      <text font-size="11.2889" style="fill: #0000ff;text-anchor:middle;font-family:monospace;font-style:normal;font-weight:normal" x="130" y="224.389">
        <tspan x="130" y="224.389">offer = B</tspan>
        <tspan x="130" y="238.5"></tspan>
      </text>
    </g>
  </g>
  <g>
    <g>
      <rect style="fill: #ffffff" x="619.222" y="187" width="220.778" height="28"/>
      <rect style="fill: none; fill-opacity:0; stroke-width: 2; stroke: #000000" x="619.222" y="187" width="220.778" height="28"/>
      <text font-size="13.5467" style="fill: #000000;text-anchor:middle;font-family:sans-serif;font-style:normal;font-weight:700" x="729.611" y="205.133">
        <tspan x="729.611" y="205.133">C</tspan>
      </text>
    </g>
    <g>
      <rect style="fill: #ffffff" x="619.222" y="215" width="220.778" height="26"/>
      <rect style="fill: none; fill-opacity:0; stroke-width: 2; stroke: #000000" x="619.222" y="215" width="220.778" height="26"/>
      <text font-size="11.2889" style="fill: #000000;text-anchor:middle;font-family:monospace;font-style:normal;font-weight:normal" x="729.611" y="231.444">
        <tspan x="729.611" y="231.444">request = B</tspan>
      </text>
    </g>
  </g>
</svg>
