<?xml version="1.0" encoding="UTF-8" standalone="no"?>
<!DOCTYPE svg PUBLIC "-//W3C//DTD SVG 1.0//EN" "http://www.w3.org/TR/2001/PR-SVG-20010719/DTD/svg10.dtd">
<svg width="42cm" height="12cm" viewBox="18 18 823 231" xmlns="http://www.w3.org/2000/svg" xmlns:xlink="http://www.w3.org/1999/xlink">
  <g>
    <rect style="fill: #ffffff" x="320" y="20" width="220" height="96"/>
    <rect style="fill: none; fill-opacity:0; stroke-width: 2; stroke: #ffffff" x="320" y="20" width="220" height="96"/>
  </g>
  <g>
    <rect style="fill: #ffffff" x="20" y="180" width="220" height="68"/>
    <rect style="fill: none; fill-opacity:0; stroke-width: 2; stroke: #ffffff" x="20" y="180" width="220" height="68"/>
  </g>
  <line style="fill: none; fill-opacity:0; stroke-width: 2; stroke: #000000" x1="130" y1="194" x2="130" y2="194"/>
  <g>
    <line style="fill: none; fill-opacity:0; stroke-width: 2; stroke: #000000" x1="240" y1="214" x2="315.321" y2="76.5383"/>
    <polygon style="fill: #000000" points="318.925,69.961 318.505,81.1334 315.321,76.5383 309.735,76.3281 "/>
    <polygon style="fill: none; fill-opacity:0; stroke-width: 2; stroke: #000000" points="318.925,69.961 318.505,81.1334 315.321,76.5383 309.735,76.3281 "/>
  </g>
  <g>
    <rect style="fill: #ffffff" x="620" y="188" width="220" height="52"/>
    <rect style="fill: none; fill-opacity:0; stroke-width: 2; stroke: #ffffff" x="620" y="188" width="220" height="52"/>
  </g>
  <g>
    <line style="fill: none; fill-opacity:0; stroke-width: 2; stroke: #000000" x1="240" y1="214" x2="610.264" y2="214"/>
    <polygon style="fill: #000000" points="617.764,214 607.764,219 610.264,214 607.764,209 "/>
    <polygon style="fill: none; fill-opacity:0; stroke-width: 2; stroke: #000000" points="617.764,214 607.764,219 610.264,214 607.764,209 "/>
  </g>
  <g>
    <line style="fill: none; fill-opacity:0; stroke-width: 2; stroke: #000000" x1="540" y1="68" x2="615.321" y2="205.462"/>
    <polygon style="fill: #000000" points="618.925,212.039 609.735,205.672 615.321,205.462 618.505,200.867 "/>
    <polygon style="fill: none; fill-opacity:0; stroke-width: 2; stroke: #000000" points="618.925,212.039 609.735,205.672 615.321,205.462 618.505,200.867 "/>
  </g>
  <g>
    <polygon style="fill: #ffffff" points="269.947,111.028 303.883,111.028 290.053,149.028 256.117,149.028 "/>
    <polygon style="fill: none; fill-opacity:0; stroke-width: 2; stroke: #000000" points="269.947,111.028 303.883,111.028 290.053,149.028 256.117,149.028 "/>
    <text font-size="11.2889" style="fill: #000000;text-anchor:middle;font-family:monospace;font-style:normal;font-weight:normal" x="280" y="133.472">
      <tspan x="280" y="133.472">A</tspan>
    </text>
  </g>
  <g>
    <polygon style="fill: #ffffff" points="419.947,195 453.883,195 440.053,233 406.117,233 "/>
    <polygon style="fill: none; fill-opacity:0; stroke-width: 2; stroke: #000000" points="419.947,195 453.883,195 440.053,233 406.117,233 "/>
    <text font-size="11.2889" style="fill: #000000;text-anchor:middle;font-family:monospace;font-style:normal;font-weight:normal" x="430" y="217.444">
      <tspan x="430" y="217.444">A</tspan>
    </text>
  </g>
  <g>
    <polygon style="fill: #ffffff" points="569.947,111.028 603.883,111.028 590.053,149.028 556.117,149.028 "/>
    <polygon style="fill: none; fill-opacity:0; stroke-width: 2; stroke: #000000" points="569.947,111.028 603.883,111.028 590.053,149.028 556.117,149.028 "/>
    <text font-size="11.2889" style="fill: #000000;text-anchor:middle;font-family:monospace;font-style:normal;font-weight:normal" x="580" y="133.472">
      <tspan x="580" y="133.472">A</tspan>
    </text>
  </g>
  <g>
    <g>
      <rect style="fill: #ffffff" x="620" y="187.944" width="220" height="28"/>
      <rect style="fill: none; fill-opacity:0; stroke-width: 2; stroke: #000000" x="620" y="187.944" width="220" height="28"/>
      <text font-size="13.5467" style="fill: #000000;text-anchor:middle;font-family:sans-serif;font-style:normal;font-weight:700" x="730" y="206.078">
        <tspan x="730" y="206.078">C</tspan>
      </text>
    </g>
    <g>
      <rect style="fill: #ffffff" x="620" y="215.944" width="220" height="24.1111"/>
      <rect style="fill: none; fill-opacity:0; stroke-width: 2; stroke: #000000" x="620" y="215.944" width="220" height="24.1111"/>
      <text font-size="11.2889" style="fill: #000000;text-anchor:middle;font-family:monospace;font-style:normal;font-weight:normal" x="730" y="231.444">
        <tspan x="730" y="231.444">request = A,B</tspan>
      </text>
    </g>
  </g>
  <g>
    <g>
      <g>
        <rect style="fill: #ffffff" x="20" y="180" width="220" height="28"/>
        <rect style="fill: none; fill-opacity:0; stroke-width: 2; stroke: #000000" x="20" y="180" width="220" height="28"/>
        <text font-size="13.5467" style="fill: #000000;text-anchor:middle;font-family:sans-serif;font-style:normal;font-weight:700" x="130" y="198.133">
          <tspan x="130" y="198.133">P</tspan>
        </text>
      </g>
      <g>
        <rect style="fill: #ffffff" x="20" y="208" width="220" height="40"/>
        <rect style="fill: none; fill-opacity:0; stroke-width: 2; stroke: #000000" x="20" y="208" width="220" height="40"/>
        <text font-size="11.2889" style="fill: #000000;text-anchor:middle;font-family:monospace;font-style:normal;font-weight:normal" x="130" y="224.389">
          <tspan x="130" y="224.389">offer = A</tspan>
          <tspan x="130" y="238.5">aggregateDemand = A,B</tspan>
        </text>
      </g>
    </g>
    <g>
      <g>
        <rect style="fill: #ffffff" x="320" y="20" width="220" height="28"/>
        <rect style="fill: none; fill-opacity:0; stroke-width: 2; stroke: #000000" x="320" y="20" width="220" height="28"/>
        <text font-size="13.5467" style="fill: #000000;text-anchor:middle;font-family:sans-serif;font-style:normal;font-weight:700" x="430" y="38.1333">
          <tspan x="430" y="38.1333">W</tspan>
        </text>
      </g>
      <g>
        <rect style="fill: #ffffff" x="320" y="48" width="220" height="68"/>
        <rect style="fill: none; fill-opacity:0; stroke-width: 2; stroke: #000000" x="320" y="48" width="220" height="68"/>
        <text font-size="11.2889" style="fill: #000000;text-anchor:middle;font-family:monospace;font-style:normal;font-weight:normal" x="430" y="64.2778">
          <tspan x="430" y="64.2778">request = A</tspan>
          <tspan x="430" y="78.3889">offer = B</tspan>
          <tspan x="430" y="92.5">aggregateDemand = A</tspan>
          <tspan x="430" y="106.611">active = True</tspan>
        </text>
      </g>
    </g>
  </g>
</svg>
