<?xml version="1.0" encoding="UTF-8" standalone="no"?>
<!DOCTYPE svg PUBLIC "-//W3C//DTD SVG 1.0//EN" "http://www.w3.org/TR/2001/PR-SVG-20010719/DTD/svg10.dtd">
<svg width="44cm" height="9cm" viewBox="18 18 863 171" xmlns="http://www.w3.org/2000/svg" xmlns:xlink="http://www.w3.org/1999/xlink">
  <g>
    <line style="fill: none; fill-opacity:0; stroke-width: 2; stroke: #000000" x1="240" y1="103.833" x2="262.234" y2="103.907"/>
    <polygon style="fill: #000000" points="269.734,103.932 259.717,108.899 262.234,103.907 259.751,98.8991 "/>
    <polygon style="fill: none; fill-opacity:0; stroke-width: 2; stroke: #000000" points="269.734,103.932 259.717,108.899 262.234,103.907 259.751,98.8991 "/>
  </g>
  <g>
    <line style="fill: none; fill-opacity:0; stroke-width: 2; stroke: #000000" x1="308.017" y1="104" x2="330.264" y2="104"/>
    <polygon style="fill: #000000" points="337.764,104 327.764,109 330.264,104 327.764,99 "/>
    <polygon style="fill: none; fill-opacity:0; stroke-width: 2; stroke: #000000" points="337.764,104 327.764,109 330.264,104 327.764,99 "/>
  </g>
  <g>
    <line style="fill: none; fill-opacity:0; stroke-width: 2; stroke: #000000" x1="560" y1="104" x2="582.246" y2="104"/>
    <polygon style="fill: #000000" points="589.746,104 579.746,109 582.246,104 579.746,99 "/>
    <polygon style="fill: none; fill-opacity:0; stroke-width: 2; stroke: #000000" points="589.746,104 579.746,109 582.246,104 579.746,99 "/>
  </g>
  <g>
    <line style="fill: none; fill-opacity:0; stroke-width: 2; stroke: #000000" x1="628.018" y1="104" x2="650.264" y2="104"/>
    <polygon style="fill: #000000" points="657.764,104 647.764,109 650.264,104 647.764,99 "/>
    <polygon style="fill: none; fill-opacity:0; stroke-width: 2; stroke: #000000" points="657.764,104 647.764,109 650.264,104 647.764,99 "/>
  </g>
  <g>
    <polygon style="fill: #ffffff" points="279.497,85 314.333,85 300.502,123 265.666,123 "/>
    <polygon style="fill: none; fill-opacity:0; stroke-width: 2; stroke: #000000" points="279.497,85 314.333,85 300.502,123 265.666,123 "/>
    <text font-size="11.2889" style="fill: #000000;text-anchor:middle;font-family:monospace;font-style:normal;font-weight:normal" x="289.999" y="107.444">
      <tspan x="289.999" y="107.444">A</tspan>
    </text>
  </g>
  <g>
    <polygon style="fill: #ffffff" points="599.497,85 634.333,85 620.503,123 585.667,123 "/>
    <polygon style="fill: none; fill-opacity:0; stroke-width: 2; stroke: #000000" points="599.497,85 634.333,85 620.503,123 585.667,123 "/>
    <text font-size="11.2889" style="fill: #0000ff;text-anchor:middle;font-family:monospace;font-style:normal;font-weight:normal" x="610" y="107.444">
      <tspan x="610" y="107.444">A</tspan>
    </text>
  </g>
  <g>
    <g>
      <rect style="fill: #ffffff" x="20" y="63.8333" width="220" height="80"/>
      <rect style="fill: none; fill-opacity:0; stroke-width: 2.35099e-37; stroke: #ffffff" x="20" y="63.8333" width="220" height="80"/>
    </g>
    <line style="fill: none; fill-opacity:0; stroke-width: 2; stroke: #000000" x1="130" y1="77.8333" x2="130" y2="77.8333"/>
    <g>
      <rect style="fill: #ffffff" x="20" y="63.8333" width="220" height="28"/>
      <rect style="fill: none; fill-opacity:0; stroke-width: 2; stroke: #000000" x="20" y="63.8333" width="220" height="28"/>
      <text font-size="13.5467" style="fill: #000000;text-anchor:middle;font-family:sans-serif;font-style:normal;font-weight:700" x="130" y="81.9667">
        <tspan x="130" y="81.9667">P</tspan>
      </text>
    </g>
    <g>
      <rect style="fill: #ffffff" x="20" y="91.8333" width="220" height="52.3333"/>
      <rect style="fill: none; fill-opacity:0; stroke-width: 2; stroke: #000000" x="20" y="91.8333" width="220" height="52.3333"/>
      <text font-size="11.2889" style="fill: #000000;text-anchor:middle;font-family:monospace;font-style:normal;font-weight:normal" x="130" y="107.333">
        <tspan x="130" y="107.333">offer = A</tspan>
        <tspan x="130" y="121.444"></tspan>
        <tspan x="130" y="135.556">demandedOffer = A</tspan>
      </text>
    </g>
    <g>
      <rect style="fill: none; fill-opacity:0; stroke-width: 2; stroke: #000000" x="20" y="91.8333" width="220" height="52.3333"/>
      <text font-size="11.2889" style="fill: #0000ff;text-anchor:middle;font-family:monospace;font-style:normal;font-weight:normal" x="130" y="107.333">
        <tspan x="130" y="107.333"></tspan>
        <tspan x="130" y="121.444">aggregateDemand = A</tspan>
        <tspan x="130" y="135.556"></tspan>
      </text>
    </g>
  </g>
  <g>
    <g>
      <rect style="fill: #ffffff" x="660" y="78" width="220" height="52"/>
      <rect style="fill: none; fill-opacity:0; stroke-width: 2.35099e-37; stroke: #ffffff" x="660" y="78" width="220" height="52"/>
    </g>
    <g>
      <rect style="fill: #ffffff" x="660" y="77.9444" width="220" height="28"/>
      <rect style="fill: none; fill-opacity:0; stroke-width: 2; stroke: #000000" x="660" y="77.9444" width="220" height="28"/>
      <text font-size="13.5467" style="fill: #000000;text-anchor:middle;font-family:sans-serif;font-style:normal;font-weight:700" x="770" y="96.0778">
        <tspan x="770" y="96.0778">C</tspan>
      </text>
    </g>
    <g>
      <rect style="fill: #ffffff" x="660" y="105.944" width="220" height="24.1111"/>
      <rect style="fill: none; fill-opacity:0; stroke-width: 2; stroke: #000000" x="660" y="105.944" width="220" height="24.1111"/>
      <text font-size="11.2889" style="fill: #0000ff;text-anchor:middle;font-family:monospace;font-style:normal;font-weight:normal" x="770" y="121.444">
        <tspan x="770" y="121.444">request = A</tspan>
      </text>
    </g>
  </g>
  <g>
    <g>
      <rect style="fill: #ffffff" x="340" y="20" width="220" height="168"/>
      <rect style="fill: none; fill-opacity:0; stroke-width: 2; stroke: #ffffff" x="340" y="20" width="220" height="168"/>
    </g>
    <g>
      <rect style="fill: #ffffff" x="340" y="20" width="220" height="28"/>
      <rect style="fill: none; fill-opacity:0; stroke-width: 2; stroke: #000000" x="340" y="20" width="220" height="28"/>
      <text font-size="13.5467" style="fill: #000000;text-anchor:middle;font-family:sans-serif;font-style:normal;font-weight:700" x="450" y="38.1333">
        <tspan x="450" y="38.1333">W</tspan>
      </text>
    </g>
    <g>
      <rect style="fill: #ffffff" x="340" y="48" width="220" height="140"/>
      <rect style="fill: none; fill-opacity:0; stroke-width: 2; stroke: #000000" x="340" y="48" width="220" height="140"/>
      <text font-size="11.2889" style="fill: #000000;text-anchor:middle;font-family:monospace;font-style:normal;font-weight:normal" x="450" y="65">
        <tspan x="450" y="65"></tspan>
        <tspan x="450" y="79.1111">offer = A,B</tspan>
        <tspan x="450" y="93.2222"></tspan>
        <tspan x="450" y="107.333"></tspan>
        <tspan x="450" y="121.444"> </tspan>
        <tspan x="450" y="135.556">_selfOffer = B</tspan>
        <tspan x="450" y="149.667">isPropagatingRequest = True</tspan>
        <tspan x="450" y="163.778">isPropagatingOffer = True</tspan>
        <tspan x="450" y="177.889"></tspan>
      </text>
    </g>
    <g>
      <rect style="fill: none; fill-opacity:0; stroke-width: 2; stroke: #000000" x="340" y="48" width="220" height="140"/>
      <text font-size="11.2889" style="fill: #0000ff;text-anchor:middle;font-family:monospace;font-style:normal;font-weight:normal" x="450" y="65">
        <tspan x="450" y="65">request = A</tspan>
        <tspan x="450" y="79.1111"></tspan>
        <tspan x="450" y="93.2222">aggregateDemand = A</tspan>
        <tspan x="450" y="107.333">demandedOffer = A</tspan>
        <tspan x="450" y="121.444">_selfRequest = None</tspan>
        <tspan x="450" y="135.556"></tspan>
        <tspan x="450" y="149.667"></tspan>
        <tspan x="450" y="163.778"></tspan>
        <tspan x="450" y="177.889">active = False</tspan>
      </text>
    </g>
  </g>
</svg>
