<?xml version="1.0" encoding="UTF-8" standalone="no"?>
<!DOCTYPE svg PUBLIC "-//W3C//DTD SVG 1.0//EN" "http://www.w3.org/TR/2001/PR-SVG-20010719/DTD/svg10.dtd">
<svg width="9cm" height="4cm" viewBox="9 29 162 62" xmlns="http://www.w3.org/2000/svg" xmlns:xlink="http://www.w3.org/1999/xlink">
  <g>
    <rect style="fill: #ffffff" x="10" y="70" width="60" height="20.4667"/>
    <rect style="fill: none; fill-opacity:0; stroke-width: 1; stroke: #000000" x="10" y="70" width="60" height="20.4667"/>
    <text font-size="6.77333" style="fill: #000000;text-anchor:middle;font-family:sans-serif;font-style:normal;font-weight:normal" x="40" y="82.3">
      <tspan x="40" y="82.3">in.tuio://:3334</tspan>
    </text>
  </g>
  <g>
    <rect style="fill: #ffffff" x="130" y="30" width="40" height="20"/>
    <rect style="fill: none; fill-opacity:0; stroke-width: 1; stroke: #000000" x="130" y="30" width="40" height="20"/>
    <text font-size="6.77333" style="fill: #000000;text-anchor:middle;font-family:sans-serif;font-style:normal;font-weight:normal" x="150" y="42.0667">
      <tspan x="150" y="42.0667">viz:</tspan>
    </text>
  </g>
  <g>
    <rect style="fill: #ffffff" x="130" y="70" width="40" height="20"/>
    <rect style="fill: none; fill-opacity:0; stroke-width: 1; stroke: #000000" x="130" y="70" width="40" height="20"/>
    <text font-size="6.77333" style="fill: #000000;text-anchor:middle;font-family:sans-serif;font-style:normal;font-weight:normal" x="150" y="82.0667">
      <tspan x="150" y="82.0667">dump:</tspan>
    </text>
  </g>
  <g>
    <rect style="fill: #ffffff" x="30" y="30" width="40" height="20.4667"/>
    <rect style="fill: none; fill-opacity:0; stroke-width: 1; stroke: #000000" x="30" y="30" width="40" height="20.4667"/>
    <text font-size="6.77333" style="fill: #000000;text-anchor:middle;font-family:sans-serif;font-style:normal;font-weight:normal" x="50" y="42.3">
      <tspan x="50" y="42.3">in.tuio:</tspan>
    </text>
  </g>
  <g>
    <rect style="fill: #ffffff" x="100" y="50" width="2" height="20"/>
    <rect style="fill: none; fill-opacity:0; stroke-width: 2; stroke: #ffffff" x="100" y="50" width="2" height="20"/>
  </g>
  <polyline style="fill: none; fill-opacity:0; stroke-width: 1; stroke: #000000" points="70,40.2333 90,40.2333 90,60 100,60 "/>
  <polyline style="fill: none; fill-opacity:0; stroke-width: 1; stroke: #000000" points="70,80.2333 90,80.2333 90,60 100,60 "/>
  <g>
    <polyline style="fill: none; fill-opacity:0; stroke-width: 1; stroke: #000000" points="100,60 110,60 110,40 125.882,40 "/>
    <polygon style="fill: #000000" points="128.882,40 124.882,42 125.882,40 124.882,38 "/>
    <polygon style="fill: none; fill-opacity:0; stroke-width: 1; stroke: #000000" points="128.882,40 124.882,42 125.882,40 124.882,38 "/>
  </g>
  <g>
    <polyline style="fill: none; fill-opacity:0; stroke-width: 1; stroke: #000000" points="100,60 110,60 110,80 110,80 110,80 125.882,80 "/>
    <polygon style="fill: #000000" points="128.882,80 124.882,82 125.882,80 124.882,78 "/>
    <polygon style="fill: none; fill-opacity:0; stroke-width: 1; stroke: #000000" points="128.882,80 124.882,82 125.882,80 124.882,78 "/>
  </g>
</svg>
